<?xml version="1.0" standalone="no"?>
<!DOCTYPE svg PUBLIC "-//W3C//DTD SVG 20010904//EN"
 "http://www.w3.org/TR/2001/REC-SVG-20010904/DTD/svg10.dtd">
<svg version="1.0" xmlns="http://www.w3.org/2000/svg"
 width="229.000000pt" height="214.000000pt" viewBox="0 0 229.000000 214.000000"
 preserveAspectRatio="xMidYMid meet">

<g transform="translate(0.000000,214.000000) scale(0.100000,-0.100000)"
fill="#000000" stroke="none">
<path d="M740 2134 c0 -3 16 -24 35 -47 52 -60 42 -72 -14 -16 -26 27 -56 49
-65 49 -27 0 -18 -18 27 -48 23 -16 50 -39 60 -49 17 -19 16 -21 -25 -41 -24
-11 -79 -30 -123 -42 -91 -25 -105 -33 -105 -66 0 -24 11 -29 54 -24 15 1 17
-2 11 -17 -23 -57 -45 -125 -45 -141 0 -15 -9 -21 -37 -25 -21 -4 -54 -10 -74
-15 -28 -7 -53 -3 -125 19 -102 32 -152 35 -194 14 -26 -14 -30 -14 -30 -1 0
21 -37 39 -66 32 -28 -7 -31 -31 -11 -97 8 -25 12 -71 9 -109 -2 -36 3 -114
12 -173 25 -169 16 -335 -20 -378 -8 -8 -14 -21 -14 -27 0 -15 27 -16 36 -1 5
8 10 6 16 -5 5 -9 16 -16 24 -16 8 0 19 -11 24 -25 7 -19 19 -26 49 -31 37 -6
39 -9 49 -53 5 -25 15 -59 20 -76 6 -16 16 -50 22 -73 10 -40 16 -46 65 -68
l54 -23 -34 -73 c-41 -87 -64 -204 -48 -241 13 -29 75 -59 249 -122 156 -57
301 -96 356 -97 35 0 47 5 74 34 36 40 83 156 121 296 14 54 26 98 27 99 3 3
331 33 361 33 22 0 25 -5 25 -33 0 -18 7 -56 15 -84 17 -58 30 -66 137 -83 42
-7 80 -15 86 -19 6 -3 18 -58 27 -121 10 -63 19 -118 21 -122 14 -22 173 -38
200 -20 7 4 17 41 24 83 7 42 15 82 19 88 5 7 23 5 59 -9 29 -11 62 -20 75
-20 12 1 -13 12 -56 27 -67 22 -78 29 -75 47 2 12 8 21 13 20 88 -5 155 -19
158 -33 3 -9 5 -2 6 16 0 18 -15 76 -35 130 -51 140 -49 133 -25 126 24 -6 99
-150 125 -241 14 -50 14 -54 -4 -72 -11 -11 -34 -20 -52 -21 -18 0 -27 -3 -20
-6 25 -10 82 8 93 29 17 32 -4 110 -57 213 -24 48 -44 91 -44 94 0 4 12 8 28
9 60 5 70 81 15 118 -38 26 -158 60 -265 76 -43 7 -78 15 -78 19 0 3 7 25 15
48 8 22 19 69 25 104 17 100 19 105 41 112 28 9 49 61 39 97 -7 23 -6 28 9 28
10 0 30 9 45 21 35 27 36 85 2 126 -13 15 -26 38 -30 51 -13 40 -49 56 -117
49 -70 -8 -107 -25 -143 -67 -51 -61 -80 -148 -91 -275 -6 -74 -15 -87 -55
-83 -23 3 -25 7 -26 52 -1 66 6 96 22 96 7 0 21 11 30 26 14 20 15 31 6 60 -9
30 -8 36 6 40 45 14 62 25 63 39 1 8 2 21 3 28 4 27 -19 56 -70 87 -49 29 -60
32 -108 27 -66 -7 -113 -30 -133 -65 -9 -15 -39 -38 -67 -52 -39 -19 -56 -35
-73 -68 -21 -41 -22 -42 -33 -22 -6 12 -28 39 -47 61 l-35 39 33 0 c102 0 161
46 214 165 36 80 38 89 26 118 -24 60 -25 77 -2 98 11 11 21 27 21 35 0 12 7
14 33 9 31 -7 32 -7 15 12 -25 27 -22 43 7 43 36 0 31 18 -7 22 -37 3 -48 23
-18 31 11 3 20 10 20 16 0 14 -16 14 -41 0 -16 -8 -26 -7 -45 6 l-25 16 26 30
c28 34 32 74 10 106 -17 25 -93 53 -144 53 -29 1 -40 7 -56 33 -27 43 -81 60
-162 53 -74 -6 -124 -26 -169 -66 -45 -39 -58 -38 -72 9 -14 45 -48 91 -68 91
-8 0 -14 -3 -14 -6z m409 -54 c9 0 -10 -11 -42 -24 -32 -13 -65 -30 -74 -37
-15 -13 -145 -30 -138 -19 2 4 26 17 52 31 26 13 53 29 58 36 12 14 59 22 99
17 16 -2 36 -4 45 -4z m229 -100 c13 -7 6 -10 -28 -10 -25 0 -65 -9 -89 -20
-24 -11 -45 -20 -47 -20 -2 0 4 16 14 36 l17 36 58 -6 c32 -3 66 -10 75 -16z
m-504 -42 c4 -17 2 -28 -4 -28 -5 0 -10 14 -10 32 0 36 4 35 14 -4z m248 -20
c20 -16 24 -35 15 -70 -10 -37 -22 -36 -25 2 -1 16 -7 41 -12 55 -10 27 -3 32
22 13z m-292 -2 c0 -6 -213 -56 -231 -55 -16 1 188 57 214 58 9 1 17 -1 17 -3z
m-70 -81 c-7 -8 -18 -15 -25 -15 -7 0 -22 -15 -34 -32 -25 -40 -27 -33 -4 13
19 39 30 49 57 49 15 0 16 -3 6 -15z m91 -14 c21 -17 23 -27 24 -114 0 -89 2
-98 30 -139 17 -23 46 -51 64 -60 20 -10 40 -30 47 -48 7 -16 18 -30 24 -30 5
0 10 -5 10 -11 0 -17 -93 -2 -146 23 -49 22 -91 66 -100 104 -11 45 2 112 30
148 28 38 33 51 14 40 -9 -5 -9 -2 1 9 14 18 12 21 -13 11 -9 -3 -16 -14 -16
-25 0 -17 -1 -17 -30 -1 -41 23 -44 64 -8 95 26 22 40 22 69 -2z m-119 -43
c-8 -8 -9 -4 -5 13 4 13 8 18 11 10 2 -7 -1 -18 -6 -23z m666 -28 c5 -52 -15
-59 -28 -11 -6 23 -14 50 -18 59 -6 16 -4 16 18 1 16 -11 26 -28 28 -49z
m-667 -39 c0 -9 2 -24 4 -34 2 -13 -1 -17 -12 -13 -8 3 -28 6 -44 6 -27 0 -29
2 -23 28 10 39 10 39 44 34 19 -3 30 -10 31 -21z m-666 -11 c4 -6 -7 -10 -27
-10 -25 0 -29 3 -18 10 19 13 37 13 45 0z m1115 -9 c0 -11 -9 -22 -19 -26 -11
-3 -22 -12 -25 -20 -3 -8 -19 -21 -36 -30 -34 -17 -62 -9 -79 24 -9 16 -5 19
42 24 28 4 63 15 77 26 32 25 40 26 40 2z m-1100 -15 c0 -35 -54 -51 -62 -18
-4 13 2 18 29 19 18 2 33 1 33 -1z m630 -26 c0 -5 -11 -10 -25 -10 -14 0 -25
5 -25 10 0 6 11 10 25 10 14 0 25 -4 25 -10z m20 -29 c0 -19 -42 -37 -60 -26
-20 12 -9 34 18 38 15 2 30 5 35 6 4 0 7 -8 7 -18z m530 -27 c21 -21 22 -27
10 -35 -54 -35 -70 -34 -70 6 0 59 23 70 60 29z m-321 2 c15 -8 33 -22 40 -30
8 -9 28 -16 45 -16 17 0 51 -10 76 -22 25 -11 65 -22 89 -24 24 -2 48 -7 53
-12 12 -12 -12 -31 -50 -38 -25 -5 -32 -3 -32 9 0 19 -56 61 -70 52 -6 -4 -31
-7 -56 -7 -48 0 -75 17 -116 75 -22 31 -19 33 21 13z m466 -39 c30 -43 11 -96
-35 -99 -49 -2 -55 1 -34 16 15 12 17 17 7 27 -9 9 -13 10 -13 1 0 -6 -7 -9
-15 -6 -11 5 -15 -1 -15 -19 0 -68 -61 -117 -143 -117 -40 0 -45 3 -49 25 -4
19 -1 25 13 25 10 0 21 4 24 10 3 5 24 14 46 20 45 12 107 64 129 107 8 15 19
31 24 34 14 11 46 -2 61 -24z m-665 -31 c0 -12 -5 -7 -19 24 -11 24 -11 24 3
6 9 -11 16 -24 16 -30z m391 -44 c14 -12 20 -25 16 -35 -5 -14 -10 -15 -33 -5
-22 10 -28 10 -32 0 -2 -7 -8 -10 -12 -7 -5 3 -7 12 -4 19 3 8 1 17 -5 21 -20
12 -11 25 18 25 16 0 39 -8 52 -18z m-88 -12 c3 -11 1 -18 -4 -14 -5 3 -9 12
-9 20 0 20 7 17 13 -6z m-235 -116 c21 -82 21 -88 5 -100 -29 -20 -49 1 -66
69 -9 35 -19 71 -23 80 -6 16 21 34 51 36 6 1 20 -38 33 -85z m-118 24 c6 -24
17 -64 24 -90 l14 -48 -28 0 c-26 0 -29 4 -49 85 -11 46 -21 87 -21 90 0 3 11
5 25 5 20 0 26 -7 35 -42z m661 15 c-12 -20 -14 -14 -5 12 4 9 9 14 11 11 3
-2 0 -13 -6 -23z m-281 -27 c0 -8 -5 -18 -11 -22 -20 -12 -104 -8 -129 7 -24
13 -21 14 50 20 41 3 78 6 83 7 4 1 7 -4 7 -12z m230 -17 c0 -5 5 -7 11 -4 6
4 5 -2 -2 -13 -9 -15 -21 -19 -42 -16 -41 5 -43 10 -10 28 34 18 43 19 43 5z
m305 -9 c-3 -5 -12 -10 -19 -10 -8 0 -19 -7 -26 -15 -11 -13 -7 -14 33 -9 61
9 91 0 105 -31 16 -35 17 -35 -25 -35 -20 0 -51 -5 -69 -12 -31 -11 -35 -10
-62 20 -23 24 -39 32 -65 32 -41 0 -54 12 -32 30 12 10 15 10 15 0 0 -6 14 0
31 14 23 20 42 26 75 26 28 0 43 -4 39 -10z m381 -44 l28 -23 -45 -7 c-47 -7
-77 -21 -68 -31 4 -3 28 -1 55 5 42 10 51 9 73 -8 15 -10 27 -31 29 -45 3 -27
2 -27 -57 -27 -70 0 -76 -10 -41 -68 27 -44 25 -50 -12 -60 -42 -11 -56 -34
-39 -65 10 -19 10 -34 -4 -86 -22 -85 -64 -202 -82 -226 -15 -19 -15 -19 -9 6
7 30 -5 44 -46 54 -17 4 -30 17 -37 35 -7 22 -21 33 -60 47 -45 16 -51 21 -51
46 0 28 1 29 43 22 94 -16 123 -40 95 -84 -16 -26 -3 -51 26 -51 35 0 40 14
37 110 -1 68 3 102 24 170 14 47 29 117 32 156 5 67 4 72 -18 88 l-24 17 28
25 c37 32 87 32 123 0z m-163 -16 c-3 -11 -12 -20 -21 -20 -13 0 -12 3 3 20
10 11 19 20 21 20 1 0 0 -9 -3 -20z m-774 -6 c56 -2 67 -6 97 -35 18 -18 46
-56 61 -85 26 -51 27 -53 9 -72 -20 -23 -60 -35 -86 -27 -30 10 -59 65 -53
103 3 19 1 32 -6 32 -6 0 -8 -8 -5 -17 4 -14 1 -13 -14 5 -11 12 -23 22 -26
22 -10 0 -7 -68 4 -92 18 -38 79 -72 133 -74 57 -2 77 -17 77 -54 0 -34 -14
-40 -88 -40 -96 0 -157 47 -182 142 -6 21 -24 52 -40 68 -32 33 -36 53 -19 97
13 35 28 45 54 36 11 -3 49 -7 84 -9z m419 -44 c50 -31 40 -54 -28 -61 -63 -7
-92 -20 -113 -50 -10 -14 -23 -19 -41 -17 l-27 3 28 55 c43 85 113 111 181 70z
m-641 -32 c-3 -8 -6 -5 -6 6 -1 11 2 17 5 13 3 -3 4 -12 1 -19z m791 -30 c14
-14 16 -78 2 -78 -5 0 -10 4 -10 9 0 5 -9 11 -20 14 -27 7 -29 67 -2 67 10 0
23 -5 30 -12z m-758 -19 c0 -6 -4 -7 -10 -4 -5 3 -10 11 -10 16 0 6 5 7 10 4
6 -3 10 -11 10 -16z m574 -55 c23 -22 20 -43 -4 -37 -11 3 -20 0 -20 -6 0 -6
8 -11 18 -11 41 0 98 -72 85 -107 -13 -32 -55 -9 -111 61 -19 23 -35 15 -48
-23 -15 -45 -36 -55 -62 -30 -30 27 -27 53 7 82 16 13 36 38 45 55 13 25 23
32 46 32 16 0 36 -7 44 -16z m-514 -120 c12 -42 18 -79 14 -84 -5 -4 -21 -10
-35 -14 -26 -6 -27 -3 -48 71 -11 43 -17 80 -13 84 6 6 26 13 53 18 3 0 16
-33 29 -75z m656 39 c-3 -21 -6 -48 -6 -60 0 -14 -6 -23 -15 -23 -18 0 -18 4
-3 69 13 59 34 70 24 14z m-768 -51 c30 -94 29 -102 -12 -102 -34 0 -35 1 -46
58 -6 31 -13 66 -15 78 -6 26 2 34 30 34 17 0 25 -12 43 -68z m615 -74 c15 -7
25 -19 22 -25 -8 -22 29 -14 54 12 26 28 35 30 80 14 23 -8 31 -17 31 -35 0
-26 0 -26 -150 -44 -47 -6 -179 -25 -295 -41 -179 -26 -219 -29 -269 -20 -54
10 -97 33 -85 46 3 2 29 2 58 -2 41 -5 55 -11 61 -27 9 -21 9 -21 9 1 1 14 9
23 24 26 12 2 0 5 -28 6 -27 1 -68 5 -90 10 -37 6 -38 7 -14 14 37 9 337 46
379 47 19 0 55 -3 80 -6 37 -5 51 -2 70 15 30 24 29 24 63 9z m-643 -68 c0 -5
-2 -10 -4 -10 -3 0 -8 5 -11 10 -3 6 -1 10 4 10 6 0 11 -4 11 -10z m730 -37
c0 -53 -22 -199 -32 -210 -10 -13 -58 -19 -58 -7 0 10 40 208 45 222 7 19 45
15 45 -5z m-727 -8 c-3 -9 -8 -14 -10 -11 -3 3 -2 9 2 15 9 16 15 13 8 -4z
m575 -11 c41 -11 26 -34 -23 -34 -25 0 -54 -5 -64 -12 -10 -6 -26 -8 -36 -4
-17 6 -16 8 5 31 24 25 67 32 118 19z m257 -19 l30 -13 -47 -1 c-36 -1 -48 3
-48 14 0 18 25 19 65 0z m-765 -19 c0 -3 -4 -8 -10 -11 -5 -3 -10 -1 -10 4 0
6 5 11 10 11 6 0 10 -2 10 -4z m-566 -12 c9 -3 16 -17 16 -29 0 -64 156 -118
430 -150 169 -20 229 -20 237 2 3 9 1 43 -6 76 -10 49 -10 61 1 68 22 14 30 6
54 -61 25 -69 52 -100 89 -100 12 0 28 -7 36 -16 22 -27 -7 -34 -141 -34 -203
0 -460 45 -648 112 -87 32 -96 40 -107 101 -8 39 1 46 39 31z m1091 -4 c3 -5
1 -10 -4 -10 -6 0 -11 5 -11 10 0 6 2 10 4 10 3 0 8 -4 11 -10z m304 -6 c13
-12 -13 -12 -75 1 l-69 14 70 -5 c38 -3 71 -7 74 -10z m-339 -17 c52 -11 53
-12 20 -15 -51 -6 -220 9 -220 18 0 22 93 20 200 -3z m213 -2 c-3 -9 -8 -14
-10 -11 -3 3 -2 9 2 15 9 16 15 13 8 -4z m-1177 -16 c3 -6 1 -16 -5 -22 -13
-13 -42 0 -49 21 -5 15 44 16 54 1z m1444 -104 l22 -70 125 -1 c94 -2 128 -5
134 -15 12 -20 69 -179 76 -211 5 -25 3 -28 -20 -28 -51 0 -127 21 -127 36 0
8 10 15 23 15 21 2 21 2 1 6 -19 4 -21 8 -14 39 7 30 6 34 -12 34 -14 0 -18 5
-14 15 3 8 0 14 -6 12 -6 -1 -13 4 -15 11 -8 22 26 12 53 -15 14 -16 24 -22
22 -14 -7 26 -55 54 -75 46 -10 -5 -21 -8 -25 -7 -4 1 -4 -6 -1 -15 4 -11 3
-14 -5 -9 -16 9 -15 -7 0 -22 17 -17 6 -24 -47 -29 -30 -4 -45 -2 -45 6 0 6
-5 11 -11 11 -5 0 -7 -4 -4 -10 16 -26 -15 -5 -69 48 -34 31 -50 45 -36 29
l24 -27 -21 -15 c-14 -10 -19 -22 -16 -35 6 -24 -5 -25 -69 -6 -85 26 -91 34
-112 129 l-6 27 125 0 126 0 19 -42 c31 -71 22 -37 -19 74 -34 90 -39 114 -31
148 2 11 29 -50 50 -115z m150 100 c157 -24 264 -61 275 -96 4 -11 0 -31 -9
-44 -13 -19 -25 -25 -55 -25 -33 0 -39 3 -43 25 -3 14 -2 25 1 25 4 0 15 6 26
13 16 13 15 14 -12 10 -20 -3 -50 5 -92 26 -34 18 -93 39 -131 47 -39 9 -70
20 -70 25 0 11 -2 12 110 -6z m-375 -33 c-13 -13 -85 -11 -85 2 0 22 9 24 51
14 22 -6 37 -13 34 -16z m-735 -23 c47 -6 88 -16 92 -22 12 -19 9 -30 -5 -24
-8 3 -63 15 -123 27 -60 12 -113 26 -118 31 -10 9 -4 9 154 -12z m1004 13 c3
-5 -1 -9 -9 -9 -8 0 -12 4 -9 9 3 4 7 8 9 8 2 0 6 -4 9 -8z m121 -20 c-3 -3
-11 0 -18 7 -9 10 -8 11 6 5 10 -3 15 -9 12 -12z m-35 -2 c0 -5 -5 -10 -11
-10 -5 0 -7 5 -4 10 3 6 8 10 11 10 2 0 4 -4 4 -10z m-1099 -31 c49 -11 89
-24 89 -27 0 -14 -221 2 -347 24 -66 12 -31 24 68 24 68 0 131 -7 190 -21z
m886 9 c38 -11 49 -23 41 -45 -2 -3 -46 -8 -100 -11 -89 -3 -97 -2 -102 16 -4
11 -14 24 -24 28 -44 19 123 31 185 12z m283 8 c0 -3 -4 -8 -10 -11 -5 -3 -10
-1 -10 4 0 6 5 11 10 11 6 0 10 -2 10 -4z m-721 -31 c28 -9 51 -20 51 -25 0
-8 -23 -11 -146 -24 -49 -5 -65 11 -18 19 71 12 70 13 -19 11 -86 -1 -106 6
-107 38 0 13 178 -1 239 -19z m76 15 c-3 -5 -12 -10 -18 -10 -7 0 -6 4 3 10
19 12 23 12 15 0z m675 0 c0 -5 -8 -10 -17 -10 -15 0 -16 2 -3 10 19 12 20 12
20 0z m-73 -6 c-3 -3 -12 -4 -19 -1 -8 3 -5 6 6 6 11 1 17 -2 13 -5z m-429
-35 c-3 -8 -7 -3 -11 10 -4 17 -3 21 5 13 5 -5 8 -16 6 -23z m-1138 11 c5 0
-4 -39 -21 -87 -16 -48 -29 -103 -28 -122 1 -36 1 -36 10 8 5 25 20 79 34 121
l25 76 73 -18 c66 -17 261 -46 433 -65 l71 -8 -41 -110 c-74 -193 -82 -201
-180 -192 -111 10 -346 90 -401 136 -19 16 -19 15 -4 -9 10 -15 43 -36 81 -52
92 -39 273 -89 341 -96 85 -7 102 13 179 218 40 107 49 120 81 120 21 0 20
-11 -20 -150 -65 -228 -104 -280 -197 -266 -58 10 -452 142 -501 169 -51 28
-63 60 -48 131 18 86 73 208 90 202 8 -3 18 -6 23 -6z m991 -10 c6 0 7 5 3 12
-5 7 -3 8 5 3 9 -5 9 -11 3 -17 -12 -12 -32 -2 -31 15 0 9 2 9 6 0 2 -7 9 -13
14 -13z m106 -2 c-3 -8 -6 -5 -6 6 -1 11 2 17 5 13 3 -3 4 -12 1 -19z m44 -90
c16 -61 50 -89 136 -114 29 -8 53 -21 53 -28 0 -11 -16 -11 -82 1 -110 20
-122 29 -136 99 -15 74 -15 94 2 94 7 0 19 -22 27 -52z m458 -71 c9 -17 10
-39 3 -83 -9 -53 -10 -55 -11 -18 -1 35 -5 42 -33 57 -32 15 -32 16 -8 17 30
0 66 20 38 20 -10 0 -18 7 -18 15 0 22 15 18 29 -8z m-205 -2 c11 -8 17 -17
15 -20 -9 -8 -63 11 -67 23 -5 17 29 14 52 -3z m34 -35 c28 0 33 -3 22 -10 -8
-6 -35 -7 -59 -4 -31 5 -42 3 -37 -5 4 -6 17 -11 29 -12 22 0 22 0 -1 -10 -21
-8 -23 -14 -18 -51 3 -24 8 -72 11 -108 8 -77 19 -100 48 -99 l22 0 -22 11
c-14 7 -23 23 -26 47 -3 20 -9 50 -12 67 -5 21 -2 34 9 43 11 9 16 10 16 2 0
-6 7 -11 15 -11 18 0 20 20 3 21 -7 0 -4 4 7 9 11 5 14 9 8 9 -18 1 -16 31 2
31 9 0 15 -9 15 -25 0 -14 4 -25 9 -25 4 0 6 11 3 25 -2 15 0 25 7 25 6 0 11
5 11 10 0 6 -14 10 -32 10 -46 0 -31 6 34 14 l56 6 11 -33 c6 -17 10 -80 8
-138 -2 -102 -3 -106 -22 -100 -11 4 -38 4 -60 0 -40 -6 -40 -6 15 -9 l55 -4
-47 -3 c-67 -6 -127 12 -133 40 -6 29 -35 256 -35 279 0 15 4 16 26 8 14 -6
42 -10 62 -10z m92 -20 c-20 -13 -50 -13 -50 0 0 6 15 10 33 10 24 0 28 -3 17
-10z m60 -30 c0 -11 -2 -20 -4 -20 -2 0 -6 9 -9 20 -3 11 -1 20 4 20 5 0 9 -9
9 -20z m-176 -16 c22 -9 20 -31 -4 -37 -16 -4 -20 0 -20 19 0 26 1 27 24 18z
m183 -96 c-2 -13 -4 -5 -4 17 -1 22 1 32 4 23 2 -10 2 -28 0 -40z m-10 -70
c-3 -8 -6 -5 -6 6 -1 11 2 17 5 13 3 -3 4 -12 1 -19z"/>
<path d="M770 1760 c0 -5 5 -10 10 -10 6 0 10 5 10 10 0 6 -4 10 -10 10 -5 0
-10 -4 -10 -10z"/>
<path d="M1350 1559 c0 -5 5 -7 10 -4 6 3 10 8 10 11 0 2 -4 4 -10 4 -5 0 -10
-5 -10 -11z"/>
<path d="M1390 1530 c0 -5 5 -10 11 -10 5 0 7 5 4 10 -3 6 -8 10 -11 10 -2 0
-4 -4 -4 -10z"/>
<path d="M1328 843 c7 -3 16 -2 19 1 4 3 -2 6 -13 5 -11 0 -14 -3 -6 -6z"/>
<path d="M1243 833 c9 -2 25 -2 35 0 9 3 1 5 -18 5 -19 0 -27 -2 -17 -5z"/>
<path d="M1944 434 c-14 -20 -24 -25 -46 -22 -15 3 -28 3 -28 2 0 -19 17 -34
39 -34 22 0 29 6 36 32 6 17 16 34 24 36 9 3 11 0 6 -9 -6 -11 -5 -12 6 -1 22
20 49 14 85 -22 36 -36 45 -80 22 -105 -11 -11 -10 -13 2 -9 9 3 16 19 18 42
3 32 -2 43 -36 77 -50 49 -101 55 -128 13z"/>
<path d="M1829 389 c26 -22 35 -20 25 5 -3 9 -16 16 -28 16 -21 -1 -21 -1 3
-21z"/>
<path d="M2062 340 c-7 -11 -8 -20 -3 -20 9 0 24 30 18 36 -1 2 -8 -6 -15 -16z"/>
<path d="M1618 543 c12 -2 30 -2 40 0 9 3 -1 5 -23 4 -22 0 -30 -2 -17 -4z"/>
<path d="M1918 273 c7 -3 16 -2 19 1 4 3 -2 6 -13 5 -11 0 -14 -3 -6 -6z"/>
<path d="M1947 243 c-4 -3 -7 -11 -7 -17 0 -6 5 -5 12 2 6 6 9 14 7 17 -3 3
-9 2 -12 -2z"/>
<path d="M1888 193 c6 -2 18 -2 25 0 6 3 1 5 -13 5 -14 0 -19 -2 -12 -5z"/>
<path d="M1837 156 c-20 -52 28 -129 70 -111 10 5 21 8 24 7 4 -1 4 8 1 20
l-5 22 -8 -22 c-5 -12 -15 -22 -22 -22 -17 0 -51 36 -44 47 3 5 2 24 -2 43 -6
28 -8 31 -14 16z"/>
<path d="M1942 140 c0 -14 2 -19 5 -12 2 6 2 18 0 25 -3 6 -5 1 -5 -13z"/>
<path d="M642 2054 c2 -11 25 -22 70 -33 77 -20 78 -10 4 25 -60 28 -79 30
-74 8z"/>
</g>
</svg>
